# xmcd
#
# Track frame offsets:
#        150
#        21740
#        38125
#        63800
#        79322
#        101917
#        121110
#        140175
#        157652
#        182717
#        244325
#
# Disc length: 3278 seconds
#
# Revision: 0
# Processed by: cddbd v1.5.1PL0 Copyright (c) Steve Scherf et al.
# Submitted via: ExactAudioCopy v0.95a5
#
DISCID=960ccc0b
DTITLE=Invocator - Early Years
DYEAR=1994
DGENRE=Heavy Metal
TTITLE0=Dismal Serfage
TTITLE1=Insurrected Despair
TTITLE2=Restraint Life
TTITLE3=The Scars Remain
TTITLE4=Alterations
TTITLE5=Occurrence Concealed
TTITLE6=The Persistence From Memorial Chasm
TTITLE7=Pursuit Of A  Rising Necesseity
TTITLE8=The Eternal War
TTITLE9=The Promise Of Agony
TTITLE10=Secret Track
EXTD=
EXTT0=
EXTT1=
EXTT2=
EXTT3=
EXTT4=
EXTT5=
EXTT6=
EXTT7=
EXTT8=
EXTT9=
EXTT10=
PLAYORDER=
